<?xml version="1.0" standalone="no"?>
<svg xmlns="http://www.w3.org/2000/svg" xmlns:xlink="http://www.w3.org/1999/xlink" version="1.1" id="bubble" x="0px" y="0px" width="100px" height="100px" viewBox="0 0 100 100" enable-background="new 0 0 100 100">
  <path id="main" fill="param(fill) #000000" d="m 82.4985,79.672 c 0,0 -7.991,0 -18.369,0 -4.421,0 -9.274,14.129 -14.129,14.129 -4.822,0 -9.644,-14.129 -14.041,-14.129 -10.42,0 -18.457,0 -18.457,0 -5.463,0 -9.891,-4.428 -9.891,-9.891 l 0,-53.692 c 0,-5.462 4.428,-9.89 9.891,-9.89 l 64.996,0 c 5.462,0 9.89,4.428 9.89,9.89 l 0,53.692 c 0,5.463 -4.428,9.891 -9.89,9.891 z"/>
  <path id="outline" fill="#000000" d="m 82.498501,79.672 c 0,0 -7.991,0 -18.369002,0 -4.421,0 -9.274,14.129 -14.129,14.129 -4.822,0 -9.644,-14.129 -14.041,-14.129 -10.42,0 -18.457,0 -18.457,0 -5.463,0 -9.891,-4.428 -9.891,-9.891 V 16.089 c 0,-5.462 4.428,-9.89 9.891,-9.89 h 64.996002 c 5.462,0 9.89,4.428 9.89,9.89 v 53.692 c 0,5.463 -4.428,9.891 -9.89,9.891 z m 4.238,-62.17 c 0,-3.121 -2.53,-5.652 -5.651,-5.652 H 18.916499 c -3.121,0 -5.652,2.531 -5.652,5.652 v 50.866 c 0,3.121 2.531,5.651 5.652,5.651 0,0 8.849,0 19.869,0 3.641,0 7.341,12.717 11.215,12.717 3.726,0 7.622,-12.717 11.127,-12.717 11.062002,0 19.958002,0 19.958002,0 3.121,0 5.651,-2.53 5.651,-5.651 V 17.502 z"/>
</svg>